<?xml version="1.0" encoding="UTF-8" standalone="no"?>
<svg
   xmlns:dc="http://purl.org/dc/elements/1.1/"
   xmlns:cc="http://creativecommons.org/ns#"
   xmlns:rdf="http://www.w3.org/1999/02/22-rdf-syntax-ns#"
   xmlns:svg="http://www.w3.org/2000/svg"
   xmlns="http://www.w3.org/2000/svg"
   xmlns:sodipodi="http://sodipodi.sourceforge.net/DTD/sodipodi-0.dtd"
   xmlns:inkscape="http://www.inkscape.org/namespaces/inkscape"
   viewBox="0 0 32 32"
   version="1.1"
   id="svg888"
   sodipodi:docname="blueprint.svg"
   inkscape:version="0.92.2 (5c3e80d, 2017-08-06)">
  <metadata
     id="metadata894">
    <rdf:RDF>
      <cc:Work
         rdf:about="">
        <dc:format>image/svg+xml</dc:format>
        <dc:type
           rdf:resource="http://purl.org/dc/dcmitype/StillImage" />
        <dc:title>article</dc:title>
      </cc:Work>
    </rdf:RDF>
  </metadata>
  <defs
     id="defs892" />
  <sodipodi:namedview
     pagecolor="#ffffff"
     bordercolor="#666666"
     borderopacity="1"
     objecttolerance="10"
     gridtolerance="10"
     guidetolerance="10"
     inkscape:pageopacity="0"
     inkscape:pageshadow="2"
     inkscape:window-width="1366"
     inkscape:window-height="657"
     id="namedview890"
     showgrid="false"
     inkscape:zoom="14.75"
     inkscape:cx="6.9491525"
     inkscape:cy="16"
     inkscape:window-x="0"
     inkscape:window-y="88"
     inkscape:window-maximized="0"
     inkscape:current-layer="svg888" />
  <title
     id="title882">blueprint</title>
  <g
     style="fill:none;fill-rule:evenodd;stroke:none;stroke-width:1"
     id="g36"
     transform="matrix(0.53333333,0,0,0.53333333,0,0.26666676)">
    <g
       style="fill:#000000"
       transform="translate(-422,-730)"
       id="g34">
      <g
         transform="translate(422,730)"
         id="g32">
        <g
           id="g30">
          <path
             inkscape:connector-curvature="0"
             d="m 46,21.2656 v 30.75 c 0,0.542 0.442,0.984 0.985,0.984 h 4.03 c 0.543,0 0.985,-0.442 0.985,-0.984 v -30.75 l -3,-5.25 z m 5.015,33.734 h -4.03 c -1.646,0 -2.985,-1.338 -2.985,-2.984 v -31.281 l 5,-8.75 5,8.75 v 31.281 c 0,1.646 -1.339,2.984 -2.985,2.984 z"
             id="path6" />
          <polygon
             points="45,48 53,48 53,46 45,46 "
             id="polygon8" />
          <polygon
             points="45,44 53,44 53,42 45,42 "
             id="polygon10" />
          <polygon
             points="45,22 53,22 53,20 45,20 "
             id="polygon12" />
          <path
             inkscape:connector-curvature="0"
             d="m 49,15 c -0.552,0 -1,-0.448 -1,-1 v -2 c 0,-0.552 0.448,-1 1,-1 0.552,0 1,0.448 1,1 v 2 c 0,0.552 -0.448,1 -1,1"
             id="path14" />
          <path
             inkscape:connector-curvature="0"
             d="m 7,45 c 1.957,0 3.729,0.807 5,2.105 V 7 C 12,4.243 9.757,2 7,2 4.243,2 2,4.243 2,7 V 47.105 C 3.271,45.807 5.043,45 7,45 m 6,8 C 12.448,53 12,52.552 12,52 12,49.243 9.757,47 7,47 4.243,47 2,49.243 2,52 2,52.552 1.552,53 1,53 0.448,53 0,52.552 0,52 V 7 C 0,3.14 3.14,0 7,0 c 3.86,0 7,3.14 7,7 v 45 c 0,0.552 -0.448,1 -1,1"
             id="path16" />
          <path
             inkscape:connector-curvature="0"
             d="m 7,47 c -2.757,0 -5,2.243 -5,5 0,2.784 2.216,5 4.94,5 H 58 V 9 H 14 v 43 c 0,0.552 -0.448,1 -1,1 -0.552,0 -1,-0.448 -1,-1 0,-2.757 -2.243,-5 -5,-5 M 59,59 H 6.94 C 3.113,59 0,55.887 0,52.06 0,48.14 3.14,45 7,45 c 1.957,0 3.729,0.807 5,2.105 V 8 c 0,-0.552 0.448,-1 1,-1 h 46 c 0.552,0 1,0.448 1,1 v 50 c 0,0.552 -0.448,1 -1,1"
             id="path18" />
          <path
             inkscape:connector-curvature="0"
             d="m 36.0059,25.2114 c -0.49,0 -0.917,-0.36 -0.988,-0.859 -0.078,-0.547 0.301,-1.053 0.848,-1.131 0.345,-0.049 0.692,-0.09 1.041,-0.123 0.545,-0.049 1.037,0.353 1.089,0.903 0.052,0.549 -0.353,1.037 -0.903,1.088 -0.316,0.03 -0.631,0.067 -0.944,0.112 -0.048,0.007 -0.096,0.01 -0.143,0.01 m -4.816,1.287 c -0.397,0 -0.772,-0.238 -0.929,-0.629 -0.205,-0.513 0.044,-1.095 0.557,-1.3 0.323,-0.129 0.65,-0.251 0.98,-0.366 0.522,-0.18 1.092,0.095 1.273,0.617 0.181,0.522 -0.095,1.092 -0.617,1.273 -0.301,0.104 -0.599,0.215 -0.893,0.332 -0.121,0.049 -0.247,0.073 -0.371,0.073 m -4.374,2.391 c -0.312,0 -0.621,-0.146 -0.816,-0.42 -0.32,-0.45 -0.215,-1.075 0.235,-1.395 0.284,-0.202 0.573,-0.398 0.865,-0.586 0.465,-0.298 1.083,-0.165 1.383,0.299 0.298,0.465 0.165,1.083 -0.3,1.382 -0.267,0.172 -0.53,0.351 -0.788,0.535 -0.176,0.125 -0.378,0.185 -0.579,0.185 m -3.691,3.355 c -0.232,0 -0.466,-0.08 -0.655,-0.244 -0.417,-0.362 -0.463,-0.993 -0.101,-1.411 0.229,-0.264 0.464,-0.522 0.705,-0.775 0.381,-0.4 1.015,-0.415 1.414,-0.034 0.4,0.381 0.415,1.014 0.034,1.414 -0.22,0.23 -0.433,0.465 -0.641,0.705 -0.198,0.228 -0.476,0.345 -0.756,0.345 m -2.799,4.13 c -0.154,0 -0.311,-0.036 -0.458,-0.111 -0.491,-0.254 -0.683,-0.857 -0.43,-1.348 0.161,-0.31 0.329,-0.618 0.504,-0.92 0.275,-0.479 0.888,-0.643 1.365,-0.366 0.479,0.276 0.642,0.888 0.366,1.366 -0.159,0.276 -0.312,0.555 -0.458,0.838 -0.177,0.344 -0.527,0.541 -0.889,0.541 m -1.739,4.674 c -0.078,0 -0.157,-0.009 -0.236,-0.028 -0.537,-0.13 -0.866,-0.67 -0.737,-1.207 0.082,-0.34 0.172,-0.677 0.27,-1.012 0.155,-0.529 0.708,-0.832 1.24,-0.679 0.53,0.154 0.835,0.71 0.68,1.24 -0.089,0.304 -0.171,0.611 -0.246,0.921 -0.111,0.458 -0.52,0.765 -0.971,0.765 m -0.587,4.952 c -0.552,0 -1,-0.448 -1,-1 0,-0.351 0.008,-0.7 0.025,-1.047 0.026,-0.552 0.522,-0.959 1.045,-0.952 0.552,0.026 0.978,0.495 0.953,1.046 -0.016,0.316 -0.023,0.633 -0.023,0.953 0,0.552 -0.448,1 -1,1"
             id="path20" />
          <path
             inkscape:connector-curvature="0"
             d="m 31,41 c -0.256,0 -0.512,-0.098 -0.707,-0.293 -0.391,-0.391 -0.391,-1.023 0,-1.414 l 4,-4 c 0.391,-0.391 1.023,-0.391 1.414,0 0.391,0.391 0.391,1.023 0,1.414 l -4,4 C 31.512,40.902 31.256,41 31,41"
             id="path22" />
          <path
             inkscape:connector-curvature="0"
             d="m 35,41 c -0.256,0 -0.512,-0.098 -0.707,-0.293 l -4,-4 c -0.391,-0.391 -0.391,-1.023 0,-1.414 0.391,-0.391 1.023,-0.391 1.414,0 l 4,4 c 0.391,0.391 0.391,1.023 0,1.414 C 35.512,40.902 35.256,41 35,41"
             id="path24" />
          <path
             inkscape:connector-curvature="0"
             d="m 20,21 c -0.256,0 -0.512,-0.098 -0.707,-0.293 -0.391,-0.391 -0.391,-1.023 0,-1.414 l 4,-4 c 0.391,-0.391 1.023,-0.391 1.414,0 0.391,0.391 0.391,1.023 0,1.414 l -4,4 C 20.512,20.902 20.256,21 20,21"
             id="path26" />
          <path
             inkscape:connector-curvature="0"
             d="m 24,21 c -0.256,0 -0.512,-0.098 -0.707,-0.293 l -4,-4 c -0.391,-0.391 -0.391,-1.023 0,-1.414 0.391,-0.391 1.023,-0.391 1.414,0 l 4,4 c 0.391,0.391 0.391,1.023 0,1.414 C 24.512,20.902 24.256,21 24,21"
             id="path28" />
        </g>
      </g>
    </g>
  </g>
</svg>
