<?xml version="1.0" encoding="UTF-8" standalone="no"?>
<svg
   xmlns:dc="http://purl.org/dc/elements/1.1/"
   xmlns:cc="http://creativecommons.org/ns#"
   xmlns:rdf="http://www.w3.org/1999/02/22-rdf-syntax-ns#"
   xmlns:svg="http://www.w3.org/2000/svg"
   xmlns="http://www.w3.org/2000/svg"
   xmlns:sodipodi="http://sodipodi.sourceforge.net/DTD/sodipodi-0.dtd"
   xmlns:inkscape="http://www.inkscape.org/namespaces/inkscape"
   viewBox="0 0 32 32"
   version="1.1"
   id="svg4586"
   sodipodi:docname="journal.svg"
   inkscape:version="0.92.2 (5c3e80d, 2017-08-06)">
  <metadata
     id="metadata4592">
    <rdf:RDF>
      <cc:Work
         rdf:about="">
        <dc:format>image/svg+xml</dc:format>
        <dc:type
           rdf:resource="http://purl.org/dc/dcmitype/StillImage" />
        <dc:title>article</dc:title>
      </cc:Work>
    </rdf:RDF>
  </metadata>
  <defs
     id="defs4590" />
  <sodipodi:namedview
     pagecolor="#ffffff"
     bordercolor="#666666"
     borderopacity="1"
     objecttolerance="10"
     gridtolerance="10"
     guidetolerance="10"
     inkscape:pageopacity="0"
     inkscape:pageshadow="2"
     inkscape:window-width="1366"
     inkscape:window-height="679"
     id="namedview4588"
     showgrid="false"
     inkscape:zoom="15.383789"
     inkscape:cx="7.3220339"
     inkscape:cy="16"
     inkscape:window-x="0"
     inkscape:window-y="66"
     inkscape:window-maximized="0"
     inkscape:current-layer="svg4586" />
  <title
     id="title4580">journal</title>
  <path
     inkscape:connector-curvature="0"
     d="m 11.797334,16 h 8.405333 C 20.672,16 21.056,15.616 21.056,15.146667 V 8.4053333 C 21.056,7.936 20.672,7.552 20.202667,7.552 H 11.797334 C 11.328,7.552 10.944,7.936 10.944,8.4053333 V 15.146667 C 10.944,15.616 11.328,16 11.797334,16 Z M 12.650667,9.2586667 H 19.392 v 5.0346663 h -6.741333 z"
     id="path2"
     style="stroke-width:0.42666668" />
  <rect
     x="10.944"
     y="22.741327"
     width="10.112"
     height="1.664"
     id="rect4"
     style="stroke-width:0.42666668" />
  <rect
     x="10.944"
     y="19.370678"
     width="10.112"
     height="1.664"
     id="rect6"
     style="stroke-width:0.42666668" />
  <path
     inkscape:connector-curvature="0"
     d="m 3.3706665,29.482667 c 0,1.408 1.152,2.517333 2.5173333,2.517333 H 27.775999 c 1.408001,0 2.517334,-1.152 2.517334,-2.517333 V 2.5173333 C 30.293333,1.1093333 29.141334,0 27.775999,0 H 5.8879998 c -1.408,0 -2.5173333,1.152 -2.5173333,2.5173333 v 2.5173334 h -1.664 v 1.664 h 1.664 v 3.3706663 h -1.664 v 1.664 h 1.664 v 3.413334 h -1.664 v 1.706666 h 1.664 V 20.224 h -1.664 v 1.664 h 1.664 v 3.370667 h -1.664 v 1.664 h 1.664 z M 28.629334,2.5173333 V 29.482667 c 0,0.469333 -0.384001,0.853333 -0.853335,0.853333 H 26.922667 V 1.664 h 0.853332 c 0.469334,0 0.853335,0.384 0.853335,0.8533333 z M 5.0346665,21.888 h 1.664 v -1.664 h -1.664 v -3.370667 h 1.664 v -1.706666 h -1.664 V 11.776 h 1.664 v -1.664 h -1.664 V 6.7413333 h 1.664 v -1.664 h -1.664 V 2.56 c 0,-0.4693333 0.384,-0.8533333 0.8533333,-0.8533333 H 25.258666 V 30.336 H 5.8879998 c -0.4693333,0 -0.8533333,-0.384 -0.8533333,-0.853333 v -2.517334 h 1.664 v -1.664 h -1.664 z"
     id="path8"
     style="stroke-width:0.42666668" />
</svg>
